<?xml version="1.0" encoding="utf-8"?>
<!-- Svg Vector Icons : http://www.onlinewebfonts.com/icon -->
<!DOCTYPE svg PUBLIC "-//W3C//DTD SVG 1.1//EN" "http://www.w3.org/Graphics/SVG/1.1/DTD/svg11.dtd">
<svg version="1.1" xmlns="http://www.w3.org/2000/svg" xmlns:xlink="http://www.w3.org/1999/xlink" x="0px" y="0px" viewBox="0 0 256 256" enable-background="new 0 0 256 256" xml:space="preserve">
<metadata> Svg Vector Icons : http://www.onlinewebfonts.com/icon </metadata>
<g><g><g><g><path fill="#000000" d="M176.6,105.6c-6.4,0.8-11.7,4-16.7,7.9c-5.6,4.3-10.2,9.5-15,14.5c-0.7,0.7-0.4,1,0.1,1.6c3.4,3.8,6.9,7.5,10.8,10.6c6.6,5.3,13.7,9.3,22.3,10.2c9.8,0.9,17.7-3.7,21.1-12.5c1.2-3.1,1.7-6.3,1.7-10c0-0.9-0.1-2.3-0.3-3.7C199.2,111.9,188.8,104,176.6,105.6z"/><path fill="#000000" d="M96.1,113.4c-5-3.8-10.3-7-16.7-7.9c-12.2-1.6-22.6,6.3-24.1,18.6c-0.2,1.4-0.3,2.7-0.3,3.7c0,3.7,0.5,6.9,1.7,10c3.5,8.8,11.4,13.4,21.1,12.5c8.7-0.8,15.8-4.9,22.3-10.2c3.9-3.2,7.4-6.9,10.8-10.6c0.5-0.5,0.8-0.9,0.1-1.6C106.4,122.9,101.7,117.7,96.1,113.4z"/><path fill="#000000" d="M233.5,10H22.5C15.6,10,10,15.6,10,22.5v210.9c0,6.9,5.6,12.5,12.5,12.5h210.9c6.9,0,12.5-5.6,12.5-12.5V22.5C246,15.6,240.4,10,233.5,10z M222.7,147.4c-6.9,19.3-23,30.3-43.5,30.1c-12.5-0.1-23.2-5-32.9-12.4c-6.4-4.8-11.8-10.6-17.1-16.6c-0.8-0.9-1.2-1.3-2.1-0.6c-0.1,0.2-0.3,0.4-0.5,0.6c-5.2,6-10.7,11.8-17,16.6c-9.7,7.4-20.4,12.2-32.9,12.4c-20.5,0.2-36.6-10.8-43.5-30.1c-3.8-10.4-4.4-21.1-2.2-32C36.4,89.6,57.2,76.1,82.1,79c10.1,1.2,18.8,5.7,26.7,11.8c6.8,5.4,12.4,12,17.9,18.6c0.2,0.3,0.4,0.5,0.6,0.6c0,0,0,0,0.1,0.1c0.1,0.1,0.3,0.2,0.4,0.2c0.1,0,0.1,0,0.2,0c0.1,0,0.1,0,0.2,0c0.1,0,0.2-0.1,0.4-0.2c0,0,0,0,0.1-0.1c0.2-0.1,0.4-0.4,0.6-0.6c5.6-6.6,11.1-13.2,17.9-18.6c7.9-6.2,16.6-10.6,26.7-11.8c24.9-2.9,45.8,10.6,51.1,36.4C227.2,126.2,226.5,136.9,222.7,147.4z"/></g></g><g></g><g></g><g></g><g></g><g></g><g></g><g></g><g></g><g></g><g></g><g></g><g></g><g></g><g></g><g></g></g></g>
</svg>